# Blender v2.72 (sub 0) OBJ File: 'Pyramid.blend'
# www.blender.org
mtllib PyramidWireframe.mtl
o Cone.001
v 0.000000 -98.784515 -97.257370
v 0.000000 -100.000000 -100.000000
v 97.257370 -98.784515 0.000004
v 100.000000 -100.000000 0.000004
v -0.000009 -98.784515 97.257370
v -0.000009 -100.000000 100.000000
v 0.000000 97.000000 0.000000
v 0.000000 100.000000 0.000000
v -97.257370 -98.784515 -0.000001
v -100.000000 -100.000000 -0.000001
v -1.118043 -97.978043 96.803543
v -1.118034 94.027863 1.118034
v -96.803543 -97.978043 1.118033
v 1.118034 -97.978043 -96.803543
v 1.118034 94.027863 -1.118034
v 96.803543 -97.978043 -1.118029
v -96.803543 -97.978043 -1.118035
v -1.118034 94.027863 -1.118034
v -1.118034 -97.978043 -96.803543
v 96.803543 -97.978043 1.118038
v 1.118034 94.027863 1.118034
v 1.118025 -97.978043 96.803543
v 0.000000 -99.392258 -96.507362
v 96.507362 -99.392258 0.000004
v -0.000009 -99.392258 96.507362
v -96.507362 -99.392258 -0.000001
v -0.000009 -98.784515 97.257370
v -0.000009 -98.784515 97.257370
v -1.118043 -97.978043 96.803543
v -1.118043 -97.978043 96.803543
v -1.118034 94.027863 1.118034
v -1.118034 94.027863 1.118034
v -1.118034 94.027863 1.118034
v 0.000000 97.000000 0.000000
v 0.000000 97.000000 0.000000
v 0.000000 97.000000 0.000000
v 0.000000 100.000000 0.000000
v 0.000000 100.000000 0.000000
v 0.000000 100.000000 0.000000
v 0.000000 100.000000 0.000000
v 0.000000 100.000000 0.000000
v 0.000000 100.000000 0.000000
v 0.000000 100.000000 0.000000
v -0.000009 -100.000000 100.000000
v -0.000009 -100.000000 100.000000
v -96.803543 -97.978043 1.118033
v -96.803543 -97.978043 1.118033
v -97.257370 -98.784515 -0.000001
v -97.257370 -98.784515 -0.000001
v -100.000000 -100.000000 -0.000001
v -100.000000 -100.000000 -0.000001
v 0.000000 -98.784515 -97.257370
v 0.000000 -98.784515 -97.257370
v 1.118034 -97.978043 -96.803543
v 1.118034 -97.978043 -96.803543
v 1.118034 94.027863 -1.118034
v 1.118034 94.027863 -1.118034
v 1.118034 94.027863 -1.118034
v 0.000000 -100.000000 -100.000000
v 0.000000 -100.000000 -100.000000
v 96.803543 -97.978043 -1.118029
v 96.803543 -97.978043 -1.118029
v 97.257370 -98.784515 0.000004
v 97.257370 -98.784515 0.000004
v 100.000000 -100.000000 0.000004
v 100.000000 -100.000000 0.000004
v -96.803543 -97.978043 -1.118035
v -96.803543 -97.978043 -1.118035
v -1.118034 94.027863 -1.118034
v -1.118034 94.027863 -1.118034
v -1.118034 94.027863 -1.118034
v -1.118034 -97.978043 -96.803543
v -1.118034 -97.978043 -96.803543
v 96.803543 -97.978043 1.118038
v 96.803543 -97.978043 1.118038
v 1.118034 94.027863 1.118034
v 1.118034 94.027863 1.118034
v 1.118034 94.027863 1.118034
v 1.118025 -97.978043 96.803543
v 1.118025 -97.978043 96.803543
v 0.000000 -99.392258 -96.507362
v 0.000000 -99.392258 -96.507362
v 96.507362 -99.392258 0.000004
v 96.507362 -99.392258 0.000004
v -0.000009 -99.392258 96.507362
v -0.000009 -99.392258 96.507362
v -96.507362 -99.392258 -0.000001
v -96.507362 -99.392258 -0.000001
vn 0.043100 -0.444500 -0.894800
vn 0.279100 -0.428300 -0.859400
vn -0.000000 -0.446000 -0.895000
vn -0.744700 0.414700 0.522900
vn -0.733100 0.429000 0.527800
vn -0.831100 0.248000 0.497700
vn 0.894800 -0.444500 -0.043100
vn 0.895600 -0.444900 0.000000
vn 0.895000 -0.446000 -0.000000
vn -0.522900 0.414700 0.744700
vn -0.499300 0.248800 0.829900
vn -0.497700 0.248000 0.831100
vn 0.611000 0.503200 -0.611000
vn 0.567700 0.596300 -0.567700
vn 0.567700 0.596300 -0.567600
vn -0.527800 0.429000 0.733100
vn -0.043100 -0.444500 0.894800
vn -0.279100 -0.428300 0.859400
vn 0.000000 -0.446000 0.895000
vn 0.744700 0.414700 -0.522900
vn 0.733100 0.429000 -0.527800
vn 0.831100 0.248000 -0.497700
vn -0.894800 -0.444500 0.043100
vn -0.895600 -0.444900 -0.000000
vn -0.895000 -0.446000 0.000000
vn 0.522900 0.414700 -0.744700
vn 0.499300 0.248800 -0.829900
vn 0.497700 0.248000 -0.831100
vn -0.611000 0.503200 0.611000
vn -0.611000 0.503300 0.611000
vn -0.567700 0.596300 0.567700
vn 0.527800 0.429000 -0.733100
vn 0.894800 -0.444500 0.043100
vn 0.859400 -0.428300 0.279100
vn -0.522900 0.414700 -0.744700
vn -0.527800 0.429000 -0.733100
vn -0.497700 0.248000 -0.831100
vn 0.043100 -0.444500 0.894800
vn 0.000000 -0.444900 0.895600
vn -0.744700 0.414700 -0.522900
vn -0.829900 0.248800 -0.499300
vn -0.831100 0.248000 -0.497700
vn 0.611000 0.503200 0.611000
vn 0.567700 0.596300 0.567700
vn -0.733100 0.429000 -0.527800
vn -0.894800 -0.444500 -0.043100
vn -0.859400 -0.428300 -0.279100
vn 0.522900 0.414700 0.744700
vn 0.527800 0.429000 0.733100
vn 0.497700 0.248000 0.831100
vn -0.043100 -0.444500 -0.894800
vn 0.000000 -0.444900 -0.895600
vn 0.744700 0.414700 0.522900
vn 0.829900 0.248800 0.499300
vn 0.831100 0.248000 0.497700
vn -0.611000 0.503300 -0.611000
vn -0.567700 0.596300 -0.567700
vn 0.733100 0.429000 0.527800
vn -0.532800 0.657500 0.532800
vn 0.000000 -0.985200 0.171400
vn -0.171400 -0.985200 0.000000
vn -0.532800 0.657500 -0.532800
vn 0.000000 -0.985200 -0.171400
vn 0.532800 0.657500 -0.532800
vn 0.171400 -0.985200 -0.000000
vn 0.532800 0.657500 0.532800
vn -0.829900 0.248800 0.499300
vn 0.859400 -0.428300 -0.279100
vn 0.611000 0.503300 -0.611000
vn 0.829900 0.248800 -0.499300
vn -0.859400 -0.428300 0.279100
vn -0.499300 0.248800 -0.829900
vn 0.279100 -0.428300 0.859400
vn 0.611000 0.503300 0.611000
vn 0.499300 0.248800 0.829900
vn -0.279100 -0.428300 -0.859400
usemtl None
s 1
f 11//1 12//2 7//3
f 29//4 6//5 8//6
f 13//7 9//8 34//9
f 46//10 33//11 37//12
f 30//13 27//14 48//15
f 46//10 10//16 6//5
f 14//17 15//18 35//19
f 54//20 2//21 38//22
f 16//23 3//24 36//25
f 61//26 58//27 39//28
f 62//29 55//30 52//31
f 61//26 4//32 2//21
f 17//33 18//34 34//9
f 67//35 50//36 40//37
f 19//38 1//39 35//19
f 72//40 71//41 43//42
f 68//43 49//44 53//44
f 67//35 72//40 59//45
f 20//46 21//47 36//25
f 74//48 65//49 41//50
f 22//51 5//52 7//3
f 79//53 78//54 42//55
f 80//56 75//56 64//57
f 74//48 79//53 44//58
f 24//59 63//31 52//31
f 81//60 60//60 66//61
f 25//62 28//57 64//57
f 85//63 83//61 66//61
f 26//64 48//15 27//14
f 85//63 45//63 51//65
f 88//66 82//66 53//44
f 81//60 87//65 51//65
f 5//52 11//1 7//3
f 31//67 29//4 8//6
f 32//68 13//7 34//9
f 10//16 46//10 37//12
f 47//69 30//13 48//15
f 29//4 46//10 6//5
f 1//39 14//17 35//19
f 56//70 54//20 38//22
f 57//71 16//23 36//25
f 4//32 61//26 39//28
f 63//31 62//29 52//31
f 54//20 61//26 2//21
f 9//8 17//33 34//9
f 69//72 67//35 40//37
f 70//73 19//38 35//19
f 59//45 72//40 43//42
f 73//74 68//43 53//44
f 50//36 67//35 59//45
f 3//24 20//46 36//25
f 76//75 74//48 41//50
f 77//76 22//51 7//3
f 44//58 79//53 42//55
f 28//57 80//56 64//57
f 65//49 74//48 44//58
f 23//59 24//59 52//31
f 83//61 81//60 66//61
f 84//62 25//62 64//57
f 45//63 85//63 66//61
f 86//64 26//64 27//14
f 87//65 85//63 51//65
f 49//44 88//66 53//44
f 60//60 81//60 51//65
