# Blender v2.72 (sub 0) OBJ File: 'Tetrahedron.blend'
# www.blender.org
mtllib TetrahedronWireframe.mtl
o Cone.002
v 0.000000 -99.514015 -139.812546
v 0.000000 -100.462494 -142.500000
v 121.081184 -99.514015 69.906288
v 123.408615 -100.462494 71.250008
v 0.000000 97.612495 0.000000
v 0.000000 100.462494 0.000000
v -121.081192 -99.514015 69.906265
v -123.408623 -100.462494 71.249985
v 119.773445 -98.645195 70.101891
v -0.000000 96.356720 0.950631
v -119.773460 -98.645195 70.101868
v 0.823271 -98.645195 -138.777802
v 0.823271 96.356720 -0.475316
v 120.596718 -98.645195 68.675934
v -120.596733 -98.645195 68.675919
v -0.823271 96.356720 -0.475316
v -0.823271 -98.645195 -138.777802
v 0.000000 -99.988251 -138.306274
v 119.776733 -99.988251 69.153145
v -119.776741 -99.988251 69.153130
v 121.081184 -99.514015 69.906288
v 121.081184 -99.514015 69.906288
v 121.081184 -99.514015 69.906288
v 121.081184 -99.514015 69.906288
v 121.081184 -99.514015 69.906288
v 119.773445 -98.645195 70.101891
v 119.773445 -98.645195 70.101891
v -0.000000 96.356720 0.950631
v -0.000000 96.356720 0.950631
v 0.000000 97.612495 0.000000
v 0.000000 97.612495 0.000000
v 0.000000 97.612495 0.000000
v 0.000000 97.612495 0.000000
v 0.000000 97.612495 0.000000
v 123.408615 -100.462494 71.250008
v 123.408615 -100.462494 71.250008
v 0.000000 100.462494 0.000000
v 0.000000 100.462494 0.000000
v -119.773460 -98.645195 70.101868
v -119.773460 -98.645195 70.101868
v -121.081192 -99.514015 69.906265
v -121.081192 -99.514015 69.906265
v -121.081192 -99.514015 69.906265
v -121.081192 -99.514015 69.906265
v -121.081192 -99.514015 69.906265
v -123.408623 -100.462494 71.249985
v -123.408623 -100.462494 71.249985
v 0.000000 -99.514015 -139.812546
v 0.000000 -99.514015 -139.812546
v 0.000000 -99.514015 -139.812546
v 0.000000 -99.514015 -139.812546
v 0.000000 -99.514015 -139.812546
v 0.823271 -98.645195 -138.777802
v 0.823271 -98.645195 -138.777802
v 0.823271 96.356720 -0.475316
v 0.823271 96.356720 -0.475316
v 0.000000 -100.462494 -142.500000
v 0.000000 -100.462494 -142.500000
v 120.596718 -98.645195 68.675934
v 120.596718 -98.645195 68.675934
v -120.596733 -98.645195 68.675919
v -120.596733 -98.645195 68.675919
v -0.823271 96.356720 -0.475316
v -0.823271 96.356720 -0.475316
v -0.823271 -98.645195 -138.777802
v -0.823271 -98.645195 -138.777802
v 0.000000 -99.988251 -138.306274
v 0.000000 -99.988251 -138.306274
v 119.776733 -99.988251 69.153145
v 119.776733 -99.988251 69.153145
v -119.776741 -99.988251 69.153130
v -119.776741 -99.988251 69.153130
vn -0.463000 -0.535000 -0.706700
vn -0.461000 -0.534400 -0.708500
vn -0.000000 0.225600 0.974200
vn -0.097400 0.385000 0.917800
vn 0.463000 -0.535000 -0.706700
vn 0.461000 -0.534400 -0.708500
vn 0.461000 -0.534400 -0.708400
vn 0.097400 0.385000 0.917800
vn 0.000000 0.219600 -0.975600
vn -0.380600 -0.535000 0.754300
vn -0.383000 -0.534400 0.753500
vn 0.843700 0.225600 -0.487100
vn 0.843500 0.385000 -0.374500
vn -0.843500 -0.535000 -0.047600
vn -0.844000 -0.534400 -0.045000
vn 0.746100 0.385000 -0.543200
vn -0.844900 0.219600 0.487800
vn 0.843500 -0.535000 -0.047600
vn 0.844000 -0.534400 -0.045000
vn -0.843700 0.225600 -0.487100
vn -0.746100 0.385000 -0.543200
vn 0.380600 -0.535000 0.754300
vn 0.383000 -0.534400 0.753500
vn -0.843500 0.385000 -0.374500
vn 0.844900 0.219600 0.487800
vn 0.844900 0.219700 0.487800
vn -0.461500 0.846200 0.266400
vn -0.097300 -0.993700 -0.056200
vn -0.000000 -0.993700 0.112400
vn 0.000000 0.846200 -0.532800
vn 0.097300 -0.993700 -0.056200
vn 0.461500 0.846200 0.266400
usemtl None
s 1
f 10//1 5//1 3//2
f 28//3 26//4 4//4
f 29//5 11//6 7//7
f 28//3 6//3 8//8
f 27//9 21//9 41//9
f 39//8 8//8 4//4
f 13//10 31//10 1//11
f 55//12 53//13 2//13
f 56//14 14//15 22//15
f 55//12 37//12 35//16
f 60//17 54//17 48//17
f 53//13 59//16 35//16
f 16//18 32//18 42//19
f 63//20 61//21 46//21
f 64//22 17//23 49//23
f 63//20 38//20 57//24
f 66//25 62//26 43//26
f 65//24 57//24 46//21
f 19//27 24//27 51//27
f 69//28 67//29 58//29
f 20//30 44//30 25//30
f 71//31 69//28 36//28
f 72//32 68//32 52//32
f 67//29 71//31 47//31
f 9//2 10//1 3//2
f 6//3 28//3 4//4
f 30//5 29//5 7//7
f 39//8 28//3 8//8
f 40//9 27//9 41//9
f 26//4 39//8 4//4
f 12//11 13//10 1//11
f 37//12 55//12 2//13
f 33//14 56//14 22//15
f 59//16 55//12 35//16
f 23//17 60//17 48//17
f 2//13 53//13 35//16
f 15//19 16//18 42//19
f 38//20 63//20 46//21
f 34//22 64//22 49//23
f 65//24 63//20 57//24
f 50//25 66//25 43//26
f 61//21 65//24 46//21
f 18//27 19//27 51//27
f 36//28 69//28 58//29
f 70//30 20//30 25//30
f 47//31 71//31 36//28
f 45//32 72//32 52//32
f 58//29 67//29 47//31
