# Blender v2.72 (sub 0) OBJ File: 'Cone.blend'
# www.blender.org
mtllib ConeShape.mtl
o Cone
v 0.000000 -100.000000 -100.000000
v 19.509033 -100.000000 -98.078522
v 38.268345 -100.000000 -92.387947
v 55.557026 -100.000000 -83.146957
v 70.710678 -100.000000 -70.710678
v 83.146965 -100.000000 -55.557018
v 92.387947 -100.000000 -38.268341
v 98.078522 -100.000000 -19.509035
v 100.000000 -100.000000 -0.000008
v 0.000000 100.000000 0.000000
v 98.078529 -100.000000 19.509020
v 92.387955 -100.000000 38.268326
v 83.146965 -100.000000 55.557018
v 70.710678 -100.000000 70.710678
v 55.557018 -100.000000 83.146965
v 38.268326 -100.000000 92.387962
v 19.509008 -100.000000 98.078529
v -0.000033 -100.000000 100.000000
v -19.509073 -100.000000 98.078522
v -38.268387 -100.000000 92.387932
v -55.557072 -100.000000 83.146927
v -70.710724 -100.000000 70.710632
v -83.147003 -100.000000 55.556965
v -92.387985 -100.000000 38.268269
v -98.078545 -100.000000 19.508945
v -100.000000 -100.000000 -0.000097
v -98.078506 -100.000000 -19.509134
v -92.387909 -100.000000 -38.268448
v -83.146896 -100.000000 -55.557125
v -70.710587 -100.000000 -70.710770
v -55.556911 -100.000000 -83.147034
v -38.268208 -100.000000 -92.388008
v -19.508883 -100.000000 -98.078552
v 0.000000 -100.000000 -100.000000
v 19.509033 -100.000000 -98.078522
v 38.268345 -100.000000 -92.387947
v 55.557026 -100.000000 -83.146957
v 70.710678 -100.000000 -70.710678
v 83.146965 -100.000000 -55.557018
v 92.387947 -100.000000 -38.268341
v 98.078522 -100.000000 -19.509035
v 100.000000 -100.000000 -0.000008
v 98.078529 -100.000000 19.509020
v 92.387955 -100.000000 38.268326
v 83.146965 -100.000000 55.557018
v 70.710678 -100.000000 70.710678
v 55.557018 -100.000000 83.146965
v 38.268326 -100.000000 92.387962
v 19.509008 -100.000000 98.078529
v -0.000033 -100.000000 100.000000
v -19.509073 -100.000000 98.078522
v -38.268387 -100.000000 92.387932
v -55.557072 -100.000000 83.146927
v -70.710724 -100.000000 70.710632
v -83.147003 -100.000000 55.556965
v -92.387985 -100.000000 38.268269
v -98.078545 -100.000000 19.508945
v -100.000000 -100.000000 -0.000097
v -98.078506 -100.000000 -19.509134
v -92.387909 -100.000000 -38.268448
v -83.146896 -100.000000 -55.557125
v -70.710587 -100.000000 -70.710770
v -55.556911 -100.000000 -83.147034
v -38.268208 -100.000000 -92.388008
v -19.508883 -100.000000 -98.078552
vn -0.342300 0.447200 -0.826300
vn 0.000000 1.000000 0.000000
vn -0.174500 0.447200 -0.877200
vn 0.000000 0.447200 -0.894400
vn 0.174500 0.447200 -0.877200
vn -0.496900 0.447200 -0.743700
vn -0.632500 0.447200 -0.632500
vn -0.743700 0.447200 -0.496900
vn -0.826300 0.447200 -0.342300
vn -0.877200 0.447200 -0.174500
vn -0.894400 0.447200 -0.000000
vn -0.877200 0.447200 0.174500
vn -0.826300 0.447200 0.342300
vn -0.743700 0.447200 0.496900
vn -0.632500 0.447200 0.632500
vn -0.496900 0.447200 0.743700
vn -0.342300 0.447200 0.826300
vn -0.174500 0.447200 0.877200
vn -0.000000 0.447200 0.894400
vn 0.174500 0.447200 0.877200
vn 0.342300 0.447200 0.826300
vn 0.496900 0.447200 0.743700
vn 0.632500 0.447200 0.632500
vn 0.743700 0.447200 0.496900
vn 0.826300 0.447200 0.342300
vn 0.877200 0.447200 0.174500
vn 0.894400 0.447200 -0.000000
vn 0.877200 0.447200 -0.174500
vn 0.826300 0.447200 -0.342300
vn 0.743700 0.447200 -0.496900
vn 0.632500 0.447200 -0.632500
vn 0.496900 0.447200 -0.743700
vn 0.342300 0.447200 -0.826300
vn 0.000000 -1.000000 -0.000000
usemtl None
s 1
f 32//1 10//2 33//3
f 1//4 10//2 2//5
f 31//6 10//2 32//1
f 30//7 10//2 31//6
f 29//8 10//2 30//7
f 28//9 10//2 29//8
f 27//10 10//2 28//9
f 26//11 10//2 27//10
f 25//12 10//2 26//11
f 24//13 10//2 25//12
f 23//14 10//2 24//13
f 22//15 10//2 23//14
f 21//16 10//2 22//15
f 20//17 10//2 21//16
f 19//18 10//2 20//17
f 18//19 10//2 19//18
f 17//20 10//2 18//19
f 16//21 10//2 17//20
f 15//22 10//2 16//21
f 14//23 10//2 15//22
f 13//24 10//2 14//23
f 12//25 10//2 13//24
f 11//26 10//2 12//25
f 9//27 10//2 11//26
f 8//28 10//2 9//27
f 7//29 10//2 8//28
f 6//30 10//2 7//29
f 5//31 10//2 6//30
f 4//32 10//2 5//31
f 3//33 10//2 4//32
f 33//3 10//2 1//4
f 2//5 10//2 3//33
f 36//34 40//34 44//34
f 44//34 40//34 41//34
f 64//34 65//34 63//34
f 62//34 65//34 61//34
f 58//34 59//34 60//34
f 57//34 34//34 46//34
f 56//34 57//34 55//34
f 52//34 53//34 54//34
f 50//34 51//34 52//34
f 57//34 54//34 55//34
f 48//34 49//34 47//34
f 44//34 45//34 46//34
f 44//34 41//34 43//34
f 47//34 50//34 57//34
f 38//34 39//34 40//34
f 36//34 37//34 38//34
f 36//34 44//34 35//34
f 65//34 34//34 58//34
f 50//34 52//34 54//34
f 57//34 58//34 34//34
f 57//34 50//34 54//34
f 41//34 42//34 43//34
f 46//34 34//34 44//34
f 44//34 34//34 35//34
f 38//34 40//34 36//34
f 47//34 49//34 50//34
f 65//34 62//34 63//34
f 65//34 58//34 60//34
f 46//34 47//34 57//34
f 65//34 60//34 61//34
