# Blender v2.72 (sub 0) OBJ File: 'Cube.blend'
# www.blender.org
mtllib CubeShape.mtl
o CubeShape_Cube.002
v -100.000000 -100.000000 100.000000
v -100.000000 -100.000000 -100.000000
v 100.000000 -100.000000 -100.000000
v 100.000000 -100.000000 100.000000
v -100.000000 100.000000 100.000000
v -100.000000 100.000000 -100.000000
v 100.000000 100.000000 -100.000000
v 100.000000 100.000000 100.000000
v -100.000000 -100.000000 100.000000
v -100.000000 -100.000000 100.000000
v -100.000000 100.000000 100.000000
v -100.000000 100.000000 100.000000
v -100.000000 100.000000 -100.000000
v -100.000000 100.000000 -100.000000
v -100.000000 -100.000000 -100.000000
v -100.000000 -100.000000 -100.000000
v 100.000000 100.000000 -100.000000
v 100.000000 100.000000 -100.000000
v 100.000000 -100.000000 -100.000000
v 100.000000 -100.000000 -100.000000
v 100.000000 100.000000 100.000000
v 100.000000 100.000000 100.000000
v 100.000000 -100.000000 100.000000
v 100.000000 -100.000000 100.000000
vn -1.000000 0.000000 0.000000
vn 0.000000 0.000000 -1.000000
vn 1.000000 0.000000 0.000000
vn 0.000000 0.000000 1.000000
vn 0.000000 -1.000000 0.000000
vn 0.000000 1.000000 0.000000
usemtl None
s off
f 6//1 2//1 1//1
f 7//2 3//2 15//2
f 8//3 4//3 19//3
f 11//4 9//4 23//4
f 16//5 20//5 24//5
f 18//6 14//6 12//6
f 5//1 6//1 1//1
f 13//2 7//2 15//2
f 17//3 8//3 19//3
f 21//4 11//4 23//4
f 10//5 16//5 24//5
f 22//6 18//6 12//6
