# Blender v2.72 (sub 0) OBJ File: 'Tetrahedron.blend'
# www.blender.org
mtllib TetrahedronShape.mtl
o Cone
v 0.000000 -100.462494 -142.500000
v 123.408615 -100.462494 71.250008
v 0.000000 100.462494 0.000000
v -123.408623 -100.462494 71.249985
v 0.000000 -100.462494 -142.500000
v 0.000000 -100.462494 -142.500000
v 123.408615 -100.462494 71.250008
v 123.408615 -100.462494 71.250008
v 0.000000 100.462494 0.000000
v 0.000000 100.462494 0.000000
v -123.408623 -100.462494 71.249985
v -123.408623 -100.462494 71.249985
vn -0.000000 0.334200 0.942500
vn 0.816200 0.334200 -0.471200
vn -0.816200 0.334200 -0.471200
vn 0.000000 -1.000000 0.000000
usemtl None
s 1
f 7//1 3//1 4//1
f 1//2 9//2 2//2
f 11//3 10//3 5//3
f 6//4 8//4 12//4
