# Blender v2.72 (sub 0) OBJ File: 'Cube.blend'
# www.blender.org
mtllib CubeInverted.mtl
o CubeTexturedInverted_Cube.007
v -100.000000 -100.000000 100.000000
v -100.000000 -100.000000 -100.000000
v 100.000000 -100.000000 -100.000000
v 100.000000 -100.000000 100.000000
v -100.000000 100.000000 100.000000
v -100.000000 100.000000 -100.000000
v 100.000000 100.000000 -100.000000
v 100.000000 100.000000 100.000000
vt 1.000000 0.000000
vt 0.000000 0.000000
vt 0.000000 1.000000
vt 1.000000 1.000000
vn 1.000000 0.000000 0.000000
vn 0.000000 0.000000 1.000000
vn -1.000000 0.000000 0.000000
vn 0.000000 0.000000 -1.000000
vn 0.000000 1.000000 0.000000
vn 0.000000 -1.000000 0.000000
usemtl None
s off
f 1/1/1 2/2/1 6/3/1
f 2/1/2 3/2/2 7/3/2
f 3/1/3 4/2/3 8/3/3
f 4/1/4 1/2/4 5/3/4
f 4/4/5 3/1/5 2/2/5
f 5/2/6 6/3/6 7/4/6
f 5/4/1 1/1/1 6/3/1
f 6/4/2 2/1/2 7/3/2
f 7/4/3 3/1/3 8/3/3
f 8/4/4 4/1/4 5/3/4
f 1/3/5 4/4/5 2/2/5
f 8/1/6 5/2/6 7/4/6
