# Blender v2.72 (sub 0) OBJ File: 'Pyramid.blend'
# www.blender.org
mtllib PyramidInverted.mtl
o Cone.003
v 0.000000 -100.000000 -100.000000
v 100.000000 -100.000000 0.000004
v -0.000009 -100.000000 100.000000
v 0.000000 100.000000 0.000000
v -100.000000 -100.000000 -0.000001
v 0.000000 -100.000000 -100.000000
v 0.000000 -100.000000 -100.000000
v 100.000000 -100.000000 0.000004
v 100.000000 -100.000000 0.000004
v 0.000000 100.000000 0.000000
v 0.000000 100.000000 0.000000
v 0.000000 100.000000 0.000000
v -100.000000 -100.000000 -0.000001
v -100.000000 -100.000000 -0.000001
v -0.000009 -100.000000 100.000000
v -0.000009 -100.000000 100.000000
vt 0.000000 0.502098
vt 0.174312 0.690171
vt 0.369266 0.334666
vt 0.426605 0.736043
vt 0.655963 0.621364
vt 0.770642 0.392006
vt 1.000000 0.506685
vt 0.885321 0.736043
vn 0.666700 -0.333300 -0.666700
vn -0.666700 -0.333300 0.666700
vn 0.666700 -0.333300 0.666700
vn -0.666700 -0.333300 -0.666700
vn 0.000000 1.000000 0.000000
usemtl None
s 1
f 15/1/1 5/2/1 4/3/1
f 1/4/2 2/5/2 10/3/2
f 13/2/3 6/4/3 11/3/3
f 8/5/4 3/6/4 12/3/4
f 14/7/5 16/6/5 9/5/5
f 7/8/5 14/7/5 9/5/5
