# Blender v2.72 (sub 0) OBJ File: 'Tetrahedron.blend'
# www.blender.org
mtllib TetrahedronInverted.mtl
o Cone.003_Cone.004
v 0.000000 -100.462494 -142.500000
v 123.408615 -100.462494 71.250008
v 0.000000 100.462494 0.000000
v -123.408623 -100.462494 71.249985
v 0.000000 -100.462494 -142.500000
v 0.000000 -100.462494 -142.500000
v 123.408615 -100.462494 71.250008
v 123.408615 -100.462494 71.250008
v 0.000000 100.462494 0.000000
v 0.000000 100.462494 0.000000
v -123.408623 -100.462494 71.249985
v -123.408623 -100.462494 71.249985
vt 0.199362 0.679351
vt 0.599682 0.679351
vt 0.399522 0.333583
vt 0.000000 0.332206
vt 0.799044 0.332206
vt 1.000000 0.678432
vn 0.000000 -0.334200 -0.942500
vn -0.816200 -0.334200 0.471200
vn 0.816200 -0.334200 0.471200
vn 0.000000 1.000000 0.000000
usemtl None
s 1
f 7/1/1 4/2/1 3/3/1
f 1/4/2 2/1/2 9/3/2
f 11/2/3 5/5/3 10/3/3
f 6/5/4 12/2/4 8/6/4
